<svg id="visual" viewBox="0 0 900 600" width="900" height="600" xmlns="http://www.w3.org/2000/svg" xmlns:xlink="http://www.w3.org/1999/xlink" version="1.1"><rect x="0" y="0" width="900" height="600" fill="#041831"></rect><path d="M0 112L37.5 114.2C75 116.3 150 120.7 225 118.5C300 116.3 375 107.7 450 105C525 102.3 600 105.7 675 108.7C750 111.7 825 114.3 862.5 115.7L900 117L900 0L862.5 0C825 0 750 0 675 0C600 0 525 0 450 0C375 0 300 0 225 0C150 0 75 0 37.5 0L0 0Z" fill="#10b981"></path><path d="M0 108L37.5 105.7C75 103.3 150 98.7 225 95.2C300 91.7 375 89.3 450 91.8C525 94.3 600 101.7 675 102.2C750 102.7 825 96.3 862.5 93.2L900 90L900 0L862.5 0C825 0 750 0 675 0C600 0 525 0 450 0C375 0 300 0 225 0C150 0 75 0 37.5 0L0 0Z" fill="#00a9a5"></path><path d="M0 87L37.5 84.3C75 81.7 150 76.3 225 77.7C300 79 375 87 450 90.2C525 93.3 600 91.7 675 90.8C750 90 825 90 862.5 90L900 90L900 0L862.5 0C825 0 750 0 675 0C600 0 525 0 450 0C375 0 300 0 225 0C150 0 75 0 37.5 0L0 0Z" fill="#0095b7"></path><path d="M0 72L37.5 72.8C75 73.7 150 75.3 225 72.5C300 69.7 375 62.3 450 58.8C525 55.3 600 55.7 675 58.8C750 62 825 68 862.5 71L900 74L900 0L862.5 0C825 0 750 0 675 0C600 0 525 0 450 0C375 0 300 0 225 0C150 0 75 0 37.5 0L0 0Z" fill="#007eb2"></path><path d="M0 46L37.5 46C75 46 150 46 225 48.2C300 50.3 375 54.7 450 55.3C525 56 600 53 675 52.2C750 51.3 825 52.7 862.5 53.3L900 54L900 0L862.5 0C825 0 750 0 675 0C600 0 525 0 450 0C375 0 300 0 225 0C150 0 75 0 37.5 0L0 0Z" fill="#0065a7"></path><path d="M0 36L37.5 37.3C75 38.7 150 41.3 225 42.2C300 43 375 42 450 41.8C525 41.7 600 42.3 675 42.2C750 42 825 41 862.5 40.5L900 40L900 0L862.5 0C825 0 750 0 675 0C600 0 525 0 450 0C375 0 300 0 225 0C150 0 75 0 37.5 0L0 0Z" fill="#144b97"></path><path d="M0 25L37.5 24.5C75 24 150 23 225 21.5C300 20 375 18 450 17.3C525 16.7 600 17.3 675 19.2C750 21 825 24 862.5 25.5L900 27L900 0L862.5 0C825 0 750 0 675 0C600 0 525 0 450 0C375 0 300 0 225 0C150 0 75 0 37.5 0L0 0Z" fill="#312e81"></path></svg>