<svg id="visual" viewBox="0 0 960 540" width="960" height="540" xmlns="http://www.w3.org/2000/svg" xmlns:xlink="http://www.w3.org/1999/xlink" version="1.1"><rect x="0" y="0" width="960" height="540" fill="#001220"></rect><path d="M0 422L17.8 424.2C35.7 426.3 71.3 430.7 106.8 432.5C142.3 434.3 177.7 433.7 213.2 435C248.7 436.3 284.3 439.7 320 437.8C355.7 436 391.3 429 426.8 426.8C462.3 424.7 497.7 427.3 533.2 428.5C568.7 429.7 604.3 429.3 640 425.8C675.7 422.3 711.3 415.7 746.8 418C782.3 420.3 817.7 431.7 853.2 434.2C888.7 436.7 924.3 430.3 942.2 427.2L960 424L960 541L942.2 541C924.3 541 888.7 541 853.2 541C817.7 541 782.3 541 746.8 541C711.3 541 675.7 541 640 541C604.3 541 568.7 541 533.2 541C497.7 541 462.3 541 426.8 541C391.3 541 355.7 541 320 541C284.3 541 248.7 541 213.2 541C177.7 541 142.3 541 106.8 541C71.3 541 35.7 541 17.8 541L0 541Z" fill="#c62368"></path><path d="M0 458L17.8 454.8C35.7 451.7 71.3 445.3 106.8 447.7C142.3 450 177.7 461 213.2 467.3C248.7 473.7 284.3 475.3 320 469C355.7 462.7 391.3 448.3 426.8 447.7C462.3 447 497.7 460 533.2 463.2C568.7 466.3 604.3 459.7 640 457.5C675.7 455.3 711.3 457.7 746.8 455.8C782.3 454 817.7 448 853.2 447.2C888.7 446.3 924.3 450.7 942.2 452.8L960 455L960 541L942.2 541C924.3 541 888.7 541 853.2 541C817.7 541 782.3 541 746.8 541C711.3 541 675.7 541 640 541C604.3 541 568.7 541 533.2 541C497.7 541 462.3 541 426.8 541C391.3 541 355.7 541 320 541C284.3 541 248.7 541 213.2 541C177.7 541 142.3 541 106.8 541C71.3 541 35.7 541 17.8 541L0 541Z" fill="#9d206d"></path><path d="M0 493L17.8 490.8C35.7 488.7 71.3 484.3 106.8 478.3C142.3 472.3 177.7 464.7 213.2 464.8C248.7 465 284.3 473 320 474.5C355.7 476 391.3 471 426.8 471.7C462.3 472.3 497.7 478.7 533.2 476.8C568.7 475 604.3 465 640 465.2C675.7 465.3 711.3 475.7 746.8 482.3C782.3 489 817.7 492 853.2 488.7C888.7 485.3 924.3 475.7 942.2 470.8L960 466L960 541L942.2 541C924.3 541 888.7 541 853.2 541C817.7 541 782.3 541 746.8 541C711.3 541 675.7 541 640 541C604.3 541 568.7 541 533.2 541C497.7 541 462.3 541 426.8 541C391.3 541 355.7 541 320 541C284.3 541 248.7 541 213.2 541C177.7 541 142.3 541 106.8 541C71.3 541 35.7 541 17.8 541L0 541Z" fill="#72226a"></path><path d="M0 497L17.8 494C35.7 491 71.3 485 106.8 486.7C142.3 488.3 177.7 497.7 213.2 498.2C248.7 498.7 284.3 490.3 320 488.7C355.7 487 391.3 492 426.8 491.7C462.3 491.3 497.7 485.7 533.2 487C568.7 488.3 604.3 496.7 640 498.5C675.7 500.3 711.3 495.7 746.8 495C782.3 494.3 817.7 497.7 853.2 495.7C888.7 493.7 924.3 486.3 942.2 482.7L960 479L960 541L942.2 541C924.3 541 888.7 541 853.2 541C817.7 541 782.3 541 746.8 541C711.3 541 675.7 541 640 541C604.3 541 568.7 541 533.2 541C497.7 541 462.3 541 426.8 541C391.3 541 355.7 541 320 541C284.3 541 248.7 541 213.2 541C177.7 541 142.3 541 106.8 541C71.3 541 35.7 541 17.8 541L0 541Z" fill="#47215e"></path><path d="M0 509L17.8 507.8C35.7 506.7 71.3 504.3 106.8 504.3C142.3 504.3 177.7 506.7 213.2 510.5C248.7 514.3 284.3 519.7 320 521.5C355.7 523.3 391.3 521.7 426.8 520.7C462.3 519.7 497.7 519.3 533.2 519.5C568.7 519.7 604.3 520.3 640 519.7C675.7 519 711.3 517 746.8 517.5C782.3 518 817.7 521 853.2 519.5C888.7 518 924.3 512 942.2 509L960 506L960 541L942.2 541C924.3 541 888.7 541 853.2 541C817.7 541 782.3 541 746.8 541C711.3 541 675.7 541 640 541C604.3 541 568.7 541 533.2 541C497.7 541 462.3 541 426.8 541C391.3 541 355.7 541 320 541C284.3 541 248.7 541 213.2 541C177.7 541 142.3 541 106.8 541C71.3 541 35.7 541 17.8 541L0 541Z" fill="#1e1b4b"></path></svg>