<svg
  id="visual"
  viewBox="0 0 960 540"
  width="960"
  height="540"
  xmlns="http://www.w3.org/2000/svg"
  xmlnsXlink="http://www.w3.org/1999/xlink"
  version="1.1"
>
  <path
    d="M0 60L87 66L175 87L262 104L349 71L436 87L524 114L611 55L698 82L785 87L873 82L960 109L960 0L873 0L785 0L698 0L611 0L524 0L436 0L349 0L262 0L175 0L87 0L0 0Z"
    fill="#0284c7"
  ></path>
  <path
    d="M0 104L87 158L175 141L262 190L349 152L436 163L524 185L611 141L698 125L785 168L873 163L960 206L960 107L873 80L785 85L698 80L611 53L524 112L436 85L349 69L262 102L175 85L87 64L0 58Z"
    fill="#0075bc"
  ></path>
  <path
    d="M0 179L87 206L175 201L262 233L349 217L436 228L524 222L611 185L698 190L785 239L873 217L960 239L960 204L873 161L785 166L698 123L611 139L524 183L436 161L349 150L262 188L175 139L87 156L0 102Z"
    fill="#0066b1"
  ></path>
  <path
    d="M0 368L87 363L175 390L262 314L349 384L436 309L524 303L611 341L698 374L785 352L873 298L960 395L960 237L873 215L785 237L698 188L611 183L524 220L436 226L349 215L262 231L175 199L87 204L0 177Z"
    fill="#0a58a5"
  ></path>
  <path
    d="M0 471L87 471L175 498L262 482L349 503L436 471L524 471L611 487L698 498L785 498L873 476L960 487L960 393L873 296L785 350L698 372L611 339L524 301L436 307L349 382L262 312L175 388L87 361L0 366Z"
    fill="#164998"
  ></path>
  <path
    d="M0 541L87 541L175 541L262 541L349 541L436 541L524 541L611 541L698 541L785 541L873 541L960 541L960 485L873 474L785 496L698 496L611 485L524 469L436 469L349 501L262 480L175 496L87 469L0 469Z"
    fill="#1e3a8a"
  ></path>
</svg>